<svg id="Layer_1" data-name="Layer 1" xmlns="http://www.w3.org/2000/svg" viewBox="0 0 350 100"><defs><style>.cls-1,.cls-3,.cls-5,.cls-6,.cls-7{fill:#d6e4a5;}.cls-1,.cls-7{stroke:#1d1e1b;}.cls-1,.cls-3,.cls-5,.cls-7{stroke-miterlimit:10;}.cls-1{stroke-width:0.74px;}.cls-2{fill:#1d1e1b;}.cls-3,.cls-5,.cls-6{stroke:#264026;}.cls-3{stroke-width:0.75px;}.cls-4{fill:#264026;}.cls-5{stroke-width:0.61px;}.cls-6{stroke-width:0.99px;}.cls-7{stroke-width:0.48px;}</style></defs><polyline class="cls-1" points="128.87 65.75 128.87 65.75 128.87 65.75"/><path class="cls-2" d="M273.52,24.71a4.56,4.56,0,0,1,.64-3.11,13,13,0,0,1,1.76-2.44,26.19,26.19,0,0,1,2.17-2.05c.76-.63,1.56-1.22,2.35-1.8-.76.63-1.51,1.26-2.22,1.94a23.92,23.92,0,0,0-2,2.15,12.63,12.63,0,0,0-1.55,2.45,5.46,5.46,0,0,0-.44,1.33,2.67,2.67,0,0,0,0,1.26Z"/><path class="cls-3" d="M273.93,23h0A10.55,10.55,0,0,0,284,12h0a10.55,10.55,0,0,0-10.07,11Z"/><path class="cls-4" d="M272.06,30.59a3.27,3.27,0,0,1,.17-3.54v0a5.72,5.72,0,0,0,.88-2.24,3.5,3.5,0,0,0-.37-2.39,5.36,5.36,0,0,0-1.93-1.88,5.64,5.64,0,0,1,2.52,1.42,4.33,4.33,0,0,1,.89,1.31,5.6,5.6,0,0,1,.39,1.55,7.4,7.4,0,0,1-.34,3.18,6,6,0,0,1-2,2.92Z"/><path class="cls-3" d="M272.77,21.89h0a10.55,10.55,0,0,0-8.92-12h0a10.55,10.55,0,0,0,8.92,12Z"/><path class="cls-2" d="M249.39,75a2.94,2.94,0,0,0-1.11.59,6.23,6.23,0,0,0-1,1,12.72,12.72,0,0,0-1.43,2.52A24.71,24.71,0,0,0,245,81.9c-.27.94-.47,1.91-.66,2.88.13-1,.27-2,.48-2.93a22.14,22.14,0,0,1,.78-2.87,12.6,12.6,0,0,1,1.31-2.72,4.65,4.65,0,0,1,2.44-2Z"/><path class="cls-3" d="M248,75.41h0A10.54,10.54,0,0,1,243,89.49h0A10.55,10.55,0,0,1,248,75.41Z"/><path class="cls-4" d="M253.79,70.17a3.29,3.29,0,0,0-3,1.82v0a5.55,5.55,0,0,1-1.56,1.83,3.48,3.48,0,0,1-2.28.81,5.29,5.29,0,0,1-2.57-.82,5.68,5.68,0,0,0,2.45,1.56,4.29,4.29,0,0,0,1.57.16,5.19,5.19,0,0,0,1.55-.39,7.31,7.31,0,0,0,2.64-1.8,5.89,5.89,0,0,0,1.61-3.18Z"/><path class="cls-3" d="M246.46,74.91h0A10.56,10.56,0,0,1,231.7,72.7h0a10.55,10.55,0,0,1,14.76,2.21Z"/><path class="cls-2" d="M112.08,20.47a3.74,3.74,0,0,1-1.61-2,10.46,10.46,0,0,1-.61-2.37,22.76,22.76,0,0,1-.07-4.81,22.94,22.94,0,0,0,.37,4.76,10,10,0,0,0,.73,2.23,3.39,3.39,0,0,0,1.39,1.61Z"/><path class="cls-5" d="M111.22,19.32h0a8.55,8.55,0,0,0-1.68-12h0a8.55,8.55,0,0,0,1.68,12Z"/><path class="cls-4" d="M115,24.42a2.67,2.67,0,0,1-2.12-1.93v0a4.67,4.67,0,0,0-.95-1.71,2.86,2.86,0,0,0-1.69-1,4.32,4.32,0,0,0-2.17.24,4.62,4.62,0,0,1,2.19-.85,3.51,3.51,0,0,1,1.28.12,4.51,4.51,0,0,1,1.17.56,6,6,0,0,1,1.81,1.85,4.79,4.79,0,0,1,.77,2.79Z"/><path class="cls-5" d="M109.93,19.48h0a8.55,8.55,0,0,0-12.08-.6h0a8.55,8.55,0,0,0,12.08.6Z"/><path class="cls-6" d="M72.14,27a1,1,0,0,1,1.11.87Q76.7,50.2,80.13,72.54a.94.94,0,0,1-.74,1.08c-4.72.74-7.07,1.13-11.77,1.95a1,1,0,0,1-1.12-.78L63,55c-1.26,8.37-1.85,12.55-2.94,20.91a2,2,0,0,1-1.39,1.31c-2.79.53-4.19.8-7,1.36a1.94,1.94,0,0,1-1.79-.68c-4.17-7.33-6.3-11-10.63-18.24,1.7,7.86,2.55,11.79,4.24,19.65a1,1,0,0,1-.74,1.14c-4.68,1-7,1.55-11.67,2.66a1,1,0,0,1-1.1-.72q-5.27-22-10.52-44a1,1,0,0,1,.71-1.22c5.66-1.35,8.5-2,14.18-3.21a2.94,2.94,0,0,1,2.6.84c5.9,9.44,8.79,14.18,14.41,23.73,1.59-11,2.47-16.45,4.36-27.41a2.94,2.94,0,0,1,2.08-1.77C63.55,28.36,66.41,27.88,72.14,27Z"/><path class="cls-6" d="M96.79,23.63a1,1,0,0,1,1.15.89l5.21,44.91a1,1,0,0,1-.84,1.06c-4.53.54-6.79.82-11.31,1.44a1,1,0,0,1-1-.83Q86.9,48.72,83.81,26.32a1,1,0,0,1,.82-1.15C89.49,24.51,91.92,24.2,96.79,23.63Z"/><path class="cls-6" d="M114.45,54.76c.13-.7.57-.95,1.12-.66,3.19,1.49,7,2.58,9.39,2.49,2-.08,3.7-2.17,3.27-2.86-2.54-4.06-19-6.29-20.34-17-1.09-8.93,5.4-15.93,15.9-16.74a29,29,0,0,1,15.75,3.92c.57.31.81.84.62,1.2C138.63,29,137.88,31,136.41,35c-.16.7-.62.93-1.18.62-3.43-1.71-7.5-3-9.78-2.9-2,.07-3.68,2-3.26,2.73,2.6,4.51,19.53,5.53,20.09,17.52.42,9-5.83,15.46-15.69,16.23-5.37.42-11.16-.82-14.65-3.22-.56-.35-.8-.81-.64-1.17C112.53,60.76,113.16,58.76,114.45,54.76Z"/><path class="cls-6" d="M181.82,54a1,1,0,0,1,1,.9c-.06,4.19-.08,6.28-.13,10.46a1,1,0,0,1-1,1c-9.95-.13-19.94,0-29.88.4-.45,0-.92-.52-1.07-1q-.88-22.59-1.76-45.17a.88.88,0,0,1,.93-1c10.47-.42,21-.56,31.46-.44a1.06,1.06,0,0,1,1.09,1l-.11,10.33a1,1,0,0,1-1.1,1c-7.08-.06-10.63-.05-17.71.07,0,2.16.05,3.24.09,5.41,5.71-.1,8.56-.12,14.27-.1a.82.82,0,0,1,.87.9c-.4,3.82-.59,5.74-1,9.57a1.17,1.17,0,0,1-1.13.88c-5.13,0-7.7,0-12.83.1l.1,5.81C171.09,53.89,174.67,53.88,181.82,54Z"/><path class="cls-6" d="M214.55,20.21c9,.54,14.61,6.38,13.95,14.35-.4,4.91-3,8.33-6.71,9.16,4.12,1.39,6.5,5.72,6,11.37-.66,8-6.68,12.8-15,12.29-8.14-.49-12.22-.67-20.36-.9a1,1,0,0,1-.88-1l1.2-45.2a1.06,1.06,0,0,1,1-1C202.07,19.54,206.23,19.72,214.55,20.21Zm-4.19,18.33a3.16,3.16,0,1,0,.34-6.29L206.43,32l-.3,6.28ZM210.65,55a3.28,3.28,0,0,0,.37-6.55c-2.14-.12-3.22-.18-5.36-.28-.13,2.62-.19,3.93-.31,6.56C207.47,54.82,208.53,54.87,210.65,55Z"/><path class="cls-6" d="M254.17,72.26c-13.55-1.16-21.55-14.61-20.44-26.95,1.16-13,12.74-24.31,26.72-21.9,13.06,2.26,22.6,14.68,20.34,28C278.66,63.87,267,73.35,254.17,72.26Zm4.52-35.14c-5.53-.71-9.74,3.22-10.48,9.68s2.36,11.2,7.7,11.89,9.55-3.12,10.47-9.56S264.21,37.83,258.69,37.12Z"/><path class="cls-6" d="M319.91,82.22c.17.67-.32,1-1,.9-5.26-1.25-7.9-1.85-13.18-3a1.9,1.9,0,0,1-1.22-1.38c-1.13-4.91-1.72-7.36-2.92-12.27-3,4-4.53,6.08-7.48,10.15a1.93,1.93,0,0,1-1.67.8c-5.3-1-8-1.5-13.27-2.41-.64-.1-.94-.64-.52-1.19,6.06-8.11,9.17-12.13,15.55-20.09-3.06-9.73-4.67-14.59-8.06-24.29-.24-.67.25-1.07.93-.95,5.69,1,8.54,1.48,14.21,2.57a2,2,0,0,1,1.36,1.38c1.34,5.19,2,7.79,3.23,13,3.19-4.29,4.8-6.43,8.06-10.68a2,2,0,0,1,1.79-.74c5.65,1.22,8.48,1.85,14.11,3.19.68.17,1,.73.49,1.25-6.93,7.59-10.32,11.44-16.94,19.2C316.19,67.47,317.49,72.38,319.91,82.22Z"/><polyline class="cls-7" points="101.13 26.52 101.13 26.52 101.13 26.52"/></svg>