<svg width="800" height="400" viewBox="0 0 800 400" fill="none" xmlns="http://www.w3.org/2000/svg">
<mask id="path-1-outside-1_97_3" maskUnits="userSpaceOnUse" x="527.923" y="140" width="208" height="119" fill="black">
<rect fill="white" x="527.923" y="140" width="208" height="119"/>
<path d="M596 211.308V141.615H620.077V211.308C620.077 223.359 618.205 232.744 614.462 239.462C607.487 251.769 594.18 257.923 574.538 257.923C554.897 257.923 541.564 251.769 534.538 239.462C530.795 232.744 528.923 223.359 528.923 211.308V141.615H553V211.308C553 219.103 553.923 224.795 555.769 228.385C558.641 234.744 564.897 237.923 574.538 237.923C584.128 237.923 590.359 234.744 593.231 228.385C595.077 224.795 596 219.103 596 211.308ZM733.923 255H705.154L683.615 216.385L660.846 255H633.308L669.769 197.231L635.077 141.615H663.385L683.615 178.462L704.385 141.615H731.769L697.077 196.308L733.923 255Z"/>
</mask>
<path d="M596 211.308V141.615H620.077V211.308C620.077 223.359 618.205 232.744 614.462 239.462C607.487 251.769 594.18 257.923 574.538 257.923C554.897 257.923 541.564 251.769 534.538 239.462C530.795 232.744 528.923 223.359 528.923 211.308V141.615H553V211.308C553 219.103 553.923 224.795 555.769 228.385C558.641 234.744 564.897 237.923 574.538 237.923C584.128 237.923 590.359 234.744 593.231 228.385C595.077 224.795 596 219.103 596 211.308ZM733.923 255H705.154L683.615 216.385L660.846 255H633.308L669.769 197.231L635.077 141.615H663.385L683.615 178.462L704.385 141.615H731.769L697.077 196.308L733.923 255Z" fill="#FDC700"/>
<path d="M596 141.615V140.615H595V141.615H596ZM620.077 141.615H621.077V140.615H620.077V141.615ZM614.462 239.462L615.332 239.955L615.335 239.948L614.462 239.462ZM534.538 239.462L533.665 239.948L533.67 239.957L534.538 239.462ZM528.923 141.615V140.615H527.923V141.615H528.923ZM553 141.615H554V140.615H553V141.615ZM555.769 228.385L556.681 227.973L556.67 227.95L556.659 227.927L555.769 228.385ZM593.231 228.385L592.341 227.927L592.33 227.95L592.319 227.973L593.231 228.385ZM597 211.308V141.615H595V211.308H597ZM596 142.615H620.077V140.615H596V142.615ZM619.077 141.615V211.308H621.077V141.615H619.077ZM619.077 211.308C619.077 223.276 617.215 232.467 613.588 238.975L615.335 239.948C619.196 233.02 621.077 223.442 621.077 211.308H619.077ZM613.592 238.969C606.861 250.846 593.977 256.923 574.538 256.923V258.923C594.382 258.923 608.114 252.692 615.332 239.955L613.592 238.969ZM574.538 256.923C555.101 256.923 542.189 250.847 535.407 238.966L533.67 239.957C540.939 252.692 554.694 258.923 574.538 258.923V256.923ZM535.412 238.975C531.786 232.467 529.923 223.276 529.923 211.308H527.923C527.923 223.442 529.804 233.02 533.665 239.948L535.412 238.975ZM529.923 211.308V141.615H527.923V211.308H529.923ZM528.923 142.615H553V140.615H528.923V142.615ZM552 141.615V211.308H554V141.615H552ZM552 211.308C552 219.14 552.921 225.032 554.88 228.842L556.659 227.927C554.926 224.558 554 219.065 554 211.308H552ZM554.858 228.796C557.953 235.65 564.681 238.923 574.538 238.923V236.923C565.114 236.923 559.329 233.837 556.681 227.973L554.858 228.796ZM574.538 238.923C584.348 238.923 591.048 235.648 594.142 228.796L592.319 227.973C589.67 233.839 583.909 236.923 574.538 236.923V238.923ZM594.12 228.842C596.079 225.032 597 219.14 597 211.308H595C595 219.065 594.074 224.558 592.341 227.927L594.12 228.842ZM733.923 255V256H735.732L734.77 254.468L733.923 255ZM705.154 255L704.281 255.487L704.567 256H705.154V255ZM683.615 216.385L684.489 215.897L683.64 214.375L682.754 215.877L683.615 216.385ZM660.846 255V256H661.417L661.708 255.508L660.846 255ZM633.308 255L632.462 254.466L631.494 256H633.308V255ZM669.769 197.231L670.615 197.765L670.95 197.234L670.618 196.702L669.769 197.231ZM635.077 141.615V140.615H633.275L634.228 142.145L635.077 141.615ZM663.385 141.615L664.261 141.134L663.976 140.615H663.385V141.615ZM683.615 178.462L682.739 178.943L683.604 180.518L684.487 178.953L683.615 178.462ZM704.385 141.615V140.615H703.8L703.514 141.124L704.385 141.615ZM731.769 141.615L732.614 142.151L733.588 140.615H731.769V141.615ZM697.077 196.308L696.233 195.772L695.894 196.305L696.23 196.839L697.077 196.308ZM733.923 254H705.154V256H733.923V254ZM706.027 254.513L684.489 215.897L682.742 216.872L704.281 255.487L706.027 254.513ZM682.754 215.877L659.985 254.492L661.708 255.508L684.477 216.893L682.754 215.877ZM660.846 254H633.308V256H660.846V254ZM634.153 255.534L670.615 197.765L668.924 196.697L632.462 254.466L634.153 255.534ZM670.618 196.702L635.925 141.086L634.228 142.145L668.921 197.76L670.618 196.702ZM635.077 142.615H663.385V140.615H635.077V142.615ZM662.508 142.097L682.739 178.943L684.492 177.98L664.261 141.134L662.508 142.097ZM684.487 178.953L705.256 142.106L703.514 141.124L682.744 177.97L684.487 178.953ZM704.385 142.615H731.769V140.615H704.385V142.615ZM730.925 141.08L696.233 195.772L697.921 196.843L732.614 142.151L730.925 141.08ZM696.23 196.839L733.076 255.532L734.77 254.468L697.924 195.776L696.23 196.839Z" fill="#FDC700" mask="url(#path-1-outside-1_97_3)"/>
<path d="M269.615 161.692H212.769V187.769H262.538V207.462H212.769V255H189.231V141.769H269.615V161.692ZM283.692 141.615H307.231V255H283.692V141.615ZM377.538 210.538H353.077V255H329.923V141.615H385.538C393.487 141.769 399.59 142.744 403.846 144.538C408.154 146.333 411.795 148.974 414.769 152.462C417.231 155.333 419.18 158.513 420.615 162C422.051 165.487 422.769 169.462 422.769 173.923C422.769 179.308 421.41 184.615 418.692 189.846C415.974 195.026 411.487 198.692 405.231 200.846C410.462 202.949 414.154 205.949 416.308 209.846C418.513 213.692 419.615 219.59 419.615 227.538V235.154C419.615 240.333 419.821 243.846 420.231 245.692C420.846 248.615 422.282 250.769 424.538 252.154V255H398.462C397.744 252.487 397.231 250.462 396.923 248.923C396.308 245.744 395.974 242.487 395.923 239.154L395.769 228.615C395.667 221.385 394.333 216.564 391.769 214.154C389.256 211.744 384.513 210.538 377.538 210.538ZM391.923 189.923C396.641 187.769 399 183.513 399 177.154C399 170.282 396.718 165.667 392.154 163.308C389.59 161.974 385.744 161.308 380.615 161.308H353.077V191.769H379.923C385.256 191.769 389.256 191.154 391.923 189.923ZM513.231 230.385C512.667 235.359 510.077 240.41 505.462 245.538C498.282 253.692 488.231 257.769 475.308 257.769C464.641 257.769 455.231 254.333 447.077 247.462C438.923 240.59 434.846 229.41 434.846 213.923C434.846 199.41 438.513 188.282 445.846 180.538C453.231 172.795 462.795 168.923 474.538 168.923C481.513 168.923 487.795 170.231 493.385 172.846C498.974 175.462 503.59 179.59 507.231 185.231C510.513 190.205 512.641 195.974 513.615 202.538C514.18 206.385 514.41 211.923 514.308 219.154H456.923C457.231 227.564 459.872 233.462 464.846 236.846C467.872 238.949 471.513 240 475.769 240C480.282 240 483.949 238.718 486.769 236.154C488.308 234.769 489.667 232.846 490.846 230.385H513.231ZM491.538 204.692C491.18 198.897 489.41 194.513 486.231 191.538C483.103 188.513 479.205 187 474.538 187C469.462 187 465.513 188.59 462.692 191.769C459.923 194.949 458.18 199.256 457.462 204.692H491.538Z" fill="white"/>
<path d="M173.233 205.524C173.233 237.255 146.964 262.769 115.234 260.875C82.6252 258.93 60.305 227.569 64.5079 194.788C67.0515 174.85 76.3989 157.753 86.5733 144.488C88.3419 142.174 90.1572 160.801 91.9726 158.751C93.7932 156.645 110.667 127.442 116.535 117.185C116.787 116.732 117.134 116.34 117.552 116.033C117.969 115.726 118.448 115.513 118.955 115.408C119.462 115.303 119.986 115.309 120.491 115.424C120.996 115.539 121.471 115.762 121.882 116.077C133.669 124.972 173.233 158.382 173.233 205.524Z" fill="#FF6900"/>
<g filter="url(#filter0_f_97_3)">
<path d="M163.451 214.16C163.451 240.14 141.943 261.031 115.963 259.481C89.2631 257.888 70.9878 232.21 74.4291 205.369C76.5117 189.044 78.982 181.925 87.0562 169.504C88.5042 167.608 93.644 180.498 95.1304 178.82C96.621 177.095 112.223 150.227 117.028 141.828C117.234 141.458 117.518 141.136 117.86 140.885C118.202 140.634 118.594 140.46 119.009 140.374C119.425 140.288 119.854 140.292 120.267 140.386C120.681 140.481 121.069 140.663 121.406 140.921C131.057 148.204 163.451 175.56 163.451 214.16Z" fill="#F0B100"/>
</g>
<g filter="url(#filter1_f_97_3)">
<path d="M147.302 232.454C147.302 247.781 133.897 260.101 117.594 259.544C99.9947 258.952 87.9269 242.92 90.5096 226.406C94.2389 202.729 118.656 172.609 118.656 172.609C118.656 172.609 146.681 195.589 147.302 232.454Z" fill="#F9B84F"/>
<path d="M147.302 232.454C147.302 247.781 133.897 260.101 117.594 259.544C99.9947 258.952 87.9269 242.92 90.5096 226.406C94.2389 202.729 118.656 172.609 118.656 172.609C118.656 172.609 146.681 195.589 147.302 232.454Z" fill="#F9B84F"/>
</g>
<g filter="url(#filter2_f_97_3)">
<path d="M134.88 244.072C134.88 252.83 127.304 259.87 118.089 259.552C108.141 259.214 101.32 250.052 102.78 240.616C104.888 227.086 118.689 209.875 118.689 209.875C118.689 209.875 134.529 223.006 134.88 244.072Z" fill="#FFF0D3"/>
<path d="M134.88 244.072C134.88 252.83 127.304 259.87 118.089 259.552C108.141 259.214 101.32 250.052 102.78 240.616C104.888 227.086 118.689 209.875 118.689 209.875C118.689 209.875 134.529 223.006 134.88 244.072Z" fill="#FFF0D3"/>
</g>
<defs>
<filter id="filter0_f_97_3" x="71.5517" y="137.851" width="94.3604" height="124.173" filterUnits="userSpaceOnUse" color-interpolation-filters="sRGB">
<feFlood flood-opacity="0" result="BackgroundImageFix"/>
<feBlend mode="normal" in="SourceGraphic" in2="BackgroundImageFix" result="shape"/>
<feGaussianBlur stdDeviation="1.23077" result="effect1_foregroundBlur_97_3"/>
</filter>
<filter id="filter1_f_97_3" x="87.7001" y="170.147" width="62.0636" height="91.876" filterUnits="userSpaceOnUse" color-interpolation-filters="sRGB">
<feFlood flood-opacity="0" result="BackgroundImageFix"/>
<feBlend mode="normal" in="SourceGraphic" in2="BackgroundImageFix" result="shape"/>
<feGaussianBlur stdDeviation="1.23077" result="effect1_foregroundBlur_97_3"/>
</filter>
<filter id="filter2_f_97_3" x="100.122" y="207.413" width="37.2199" height="54.6105" filterUnits="userSpaceOnUse" color-interpolation-filters="sRGB">
<feFlood flood-opacity="0" result="BackgroundImageFix"/>
<feBlend mode="normal" in="SourceGraphic" in2="BackgroundImageFix" result="shape"/>
<feGaussianBlur stdDeviation="1.23077" result="effect1_foregroundBlur_97_3"/>
</filter>
</defs>
</svg>
