<svg width="218" height="38" viewBox="0 0 218 38" fill="none" xmlns="http://www.w3.org/2000/svg">
<mask id="path-1-outside-1_14_3" maskUnits="userSpaceOnUse" x="0" y="0" width="218" height="38" fill="black">
<rect fill="white" width="218" height="38"/>
<path d="M27.832 34.936C26.4507 35.5333 24.8453 35.9627 23.016 36.224C21.1867 36.4853 19.488 36.616 17.92 36.616C12.8427 36.616 8.86667 35.2907 5.992 32.64C3.11733 29.9893 1.68 25.92 1.68 20.432C1.68 14.832 3.192 10.6507 6.216 7.888C9.24 5.088 13.496 3.688 18.984 3.688C21.5973 3.688 24.3227 4.04267 27.16 4.752C27.16 5.49866 27.0853 6.61866 26.936 8.112C26.7867 9.568 26.6373 10.5947 26.488 11.192H22.96C20.384 11.192 18.3493 11.248 16.856 11.36C15.4 11.4347 14.5227 11.6027 14.224 11.864C13.664 12.3867 13.2347 13.4507 12.936 15.056C12.6373 16.624 12.488 18.136 12.488 19.592C12.488 22.1307 12.8053 24.0907 13.44 25.472C14.0747 26.816 14.8773 27.712 15.848 28.16C16.7813 28.608 18.3307 28.832 20.496 28.832C22.2133 28.832 24.4533 28.6827 27.216 28.384L27.832 34.936ZM31.1749 2.4L40.7509 2.008V36H31.1749V2.4ZM61.1231 29.28C62.0565 29.28 63.7925 29.1867 66.3311 29C66.6671 29 67.2831 28.9627 68.1791 28.888L69.0191 34.656C66.1445 36 62.4111 36.672 57.8191 36.672C53.5258 36.672 50.2218 35.5893 47.9071 33.424C45.6298 31.2587 44.4911 27.992 44.4911 23.624C44.4911 21.384 44.7711 19.2187 45.3311 17.128C45.9285 15.0373 46.6005 13.5813 47.3471 12.76C48.1311 11.9387 49.5871 11.2293 51.7151 10.632C53.8431 10.0347 55.9525 9.736 58.0431 9.736C61.4031 9.736 63.9231 10.3333 65.6031 11.528C67.2831 12.7227 68.3845 14.384 68.9071 16.512C69.4298 18.6027 69.6911 21.4213 69.6911 24.968C67.1525 25.1173 64.6698 25.192 62.2431 25.192H54.2911C54.2911 26.3867 54.5338 27.2827 55.0191 27.88C55.5418 28.4773 56.2698 28.8693 57.2031 29.056C58.1365 29.2053 59.4431 29.28 61.1231 29.28ZM54.8511 16.4C54.6271 16.512 54.4591 16.9973 54.3471 17.856C54.2351 18.7147 54.1605 19.6853 54.1231 20.768H57.0351C58.7898 20.768 60.0591 20.7493 60.8431 20.712C60.8431 18.92 60.5818 17.6507 60.0591 16.904C59.5738 16.1573 58.7151 15.784 57.4831 15.784C56.4751 15.784 55.5978 15.9893 54.8511 16.4ZM88.4056 36L87.5096 32.472C85.7923 35.272 83.403 36.672 80.3416 36.672C77.8403 36.672 75.787 35.9813 74.1816 34.6C72.6136 33.1813 71.8296 31.2027 71.8296 28.664C71.8296 27.096 72.2776 25.7333 73.1736 24.576C74.107 23.3813 75.3763 22.5413 76.9816 22.056C79.0723 21.4587 82.3016 21.1227 86.6696 21.048C86.6696 18.584 86.5576 17.2773 86.3336 17.128C86.147 16.9787 85.5496 16.904 84.5416 16.904C83.907 16.904 83.0296 16.9413 81.9096 17.016C80.1176 17.0907 77.691 17.296 74.6296 17.632C74.331 15.616 74.107 13.4507 73.9576 11.136C75.9363 10.7253 78.0083 10.3893 80.1736 10.128C82.339 9.82933 84.2803 9.68 85.9976 9.68C88.9843 9.68 91.2243 10.184 92.7176 11.192C94.211 12.1627 95.1816 13.4507 95.6296 15.056C96.0776 16.6613 96.283 18.696 96.2456 21.16L96.1896 29.392L96.3576 36H88.4056ZM83.5896 30.4C84.5603 30.4 85.587 30.2133 86.6696 29.84V25.696H86.2216C83.459 25.696 81.9283 25.8453 81.6296 26.144C81.443 26.3307 81.2936 26.6107 81.1816 26.984C81.107 27.3573 81.0696 27.712 81.0696 28.048C81.0696 28.944 81.275 29.56 81.6856 29.896C82.0963 30.232 82.731 30.4 83.5896 30.4ZM125.489 11.864C125.825 12.2747 126.068 13.3013 126.217 14.944C126.404 16.5867 126.497 19.088 126.497 22.448V36H116.921V22.56V20.264C116.921 19.0693 116.828 18.3227 116.641 18.024C116.343 17.6507 115.652 17.464 114.569 17.464C114.047 17.464 113.655 17.4827 113.393 17.52C112.348 17.5573 111.265 17.8 110.145 18.248V36H100.569V10.24H108.353L109.417 14.552C112.105 11.304 115.316 9.68 119.049 9.68C120.393 9.68 121.644 9.86667 122.801 10.24C123.996 10.6133 124.892 11.1547 125.489 11.864Z"/>
<path d="M148.225 9.68C151.137 9.68 153.377 10.5573 154.945 12.312C156.55 14.0667 157.353 17.1653 157.353 21.608C157.353 24.856 157.017 27.6373 156.345 29.952C155.71 32.2293 154.982 33.6853 154.161 34.32C153.19 35.104 151.753 35.6827 149.849 36.056C147.945 36.4293 145.78 36.616 143.353 36.616C141.486 36.616 139.396 36.4667 137.081 36.168C134.766 35.9067 132.694 35.4773 130.865 34.88V2.4L140.553 2.008V7.272C140.553 7.57067 140.534 8.26133 140.497 9.344C140.497 10.4267 140.46 11.3413 140.385 12.088C140.31 12.7973 140.198 13.3387 140.049 13.712L140.385 14.104C141.244 12.7973 142.326 11.7333 143.633 10.912C144.94 10.0907 146.47 9.68 148.225 9.68ZM146.657 29.896C146.881 29.5227 147.068 28.6453 147.217 27.264C147.404 25.8827 147.497 24.5573 147.497 23.288C147.497 21.7947 147.422 20.6187 147.273 19.76C147.161 18.9013 146.844 18.2293 146.321 17.744C145.836 17.2213 145.07 16.96 144.025 16.96C143.092 16.96 141.897 17.0907 140.441 17.352V30.008C141.822 30.232 143.26 30.344 144.753 30.344C145.836 30.344 146.47 30.1947 146.657 29.896ZM173.486 36.728C169.006 36.728 165.646 35.6827 163.406 33.592C161.203 31.464 160.102 28.1227 160.102 23.568C160.102 21.0667 160.326 18.8827 160.774 17.016C161.259 15.112 161.838 13.7867 162.51 13.04C163.368 12.0693 164.936 11.2667 167.214 10.632C169.528 9.99733 171.694 9.68 173.71 9.68C178.526 9.68 181.96 10.7067 184.014 12.76C186.067 14.8133 187.094 18.0987 187.094 22.616C187.094 27.4693 185.992 31.0347 183.79 33.312C181.587 35.5893 178.152 36.728 173.486 36.728ZM173.654 30.176C175.11 30.176 176.062 29.672 176.51 28.664C176.958 27.6187 177.182 25.7893 177.182 23.176C177.182 21.3467 177.088 19.9467 176.902 18.976C176.715 17.968 176.36 17.24 175.838 16.792C175.352 16.3067 174.587 16.064 173.542 16.064C172.048 16.064 171.19 16.1947 170.966 16.456C170.667 16.7173 170.424 17.5387 170.238 18.92C170.051 20.3013 169.958 21.7387 169.958 23.232C169.958 25.7707 170.2 27.5627 170.686 28.608C171.208 29.6533 172.198 30.176 173.654 30.176ZM193.977 22.84L187.537 10.24H196.833L201.481 20.208L206.185 10.24H215.425L209.041 22.84L216.041 36H206.689L201.481 25.36L196.273 36H186.921L193.977 22.84Z"/>
</mask>
<path d="M27.832 34.936C26.4507 35.5333 24.8453 35.9627 23.016 36.224C21.1867 36.4853 19.488 36.616 17.92 36.616C12.8427 36.616 8.86667 35.2907 5.992 32.64C3.11733 29.9893 1.68 25.92 1.68 20.432C1.68 14.832 3.192 10.6507 6.216 7.888C9.24 5.088 13.496 3.688 18.984 3.688C21.5973 3.688 24.3227 4.04267 27.16 4.752C27.16 5.49866 27.0853 6.61866 26.936 8.112C26.7867 9.568 26.6373 10.5947 26.488 11.192H22.96C20.384 11.192 18.3493 11.248 16.856 11.36C15.4 11.4347 14.5227 11.6027 14.224 11.864C13.664 12.3867 13.2347 13.4507 12.936 15.056C12.6373 16.624 12.488 18.136 12.488 19.592C12.488 22.1307 12.8053 24.0907 13.44 25.472C14.0747 26.816 14.8773 27.712 15.848 28.16C16.7813 28.608 18.3307 28.832 20.496 28.832C22.2133 28.832 24.4533 28.6827 27.216 28.384L27.832 34.936ZM31.1749 2.4L40.7509 2.008V36H31.1749V2.4ZM61.1231 29.28C62.0565 29.28 63.7925 29.1867 66.3311 29C66.6671 29 67.2831 28.9627 68.1791 28.888L69.0191 34.656C66.1445 36 62.4111 36.672 57.8191 36.672C53.5258 36.672 50.2218 35.5893 47.9071 33.424C45.6298 31.2587 44.4911 27.992 44.4911 23.624C44.4911 21.384 44.7711 19.2187 45.3311 17.128C45.9285 15.0373 46.6005 13.5813 47.3471 12.76C48.1311 11.9387 49.5871 11.2293 51.7151 10.632C53.8431 10.0347 55.9525 9.736 58.0431 9.736C61.4031 9.736 63.9231 10.3333 65.6031 11.528C67.2831 12.7227 68.3845 14.384 68.9071 16.512C69.4298 18.6027 69.6911 21.4213 69.6911 24.968C67.1525 25.1173 64.6698 25.192 62.2431 25.192H54.2911C54.2911 26.3867 54.5338 27.2827 55.0191 27.88C55.5418 28.4773 56.2698 28.8693 57.2031 29.056C58.1365 29.2053 59.4431 29.28 61.1231 29.28ZM54.8511 16.4C54.6271 16.512 54.4591 16.9973 54.3471 17.856C54.2351 18.7147 54.1605 19.6853 54.1231 20.768H57.0351C58.7898 20.768 60.0591 20.7493 60.8431 20.712C60.8431 18.92 60.5818 17.6507 60.0591 16.904C59.5738 16.1573 58.7151 15.784 57.4831 15.784C56.4751 15.784 55.5978 15.9893 54.8511 16.4ZM88.4056 36L87.5096 32.472C85.7923 35.272 83.403 36.672 80.3416 36.672C77.8403 36.672 75.787 35.9813 74.1816 34.6C72.6136 33.1813 71.8296 31.2027 71.8296 28.664C71.8296 27.096 72.2776 25.7333 73.1736 24.576C74.107 23.3813 75.3763 22.5413 76.9816 22.056C79.0723 21.4587 82.3016 21.1227 86.6696 21.048C86.6696 18.584 86.5576 17.2773 86.3336 17.128C86.147 16.9787 85.5496 16.904 84.5416 16.904C83.907 16.904 83.0296 16.9413 81.9096 17.016C80.1176 17.0907 77.691 17.296 74.6296 17.632C74.331 15.616 74.107 13.4507 73.9576 11.136C75.9363 10.7253 78.0083 10.3893 80.1736 10.128C82.339 9.82933 84.2803 9.68 85.9976 9.68C88.9843 9.68 91.2243 10.184 92.7176 11.192C94.211 12.1627 95.1816 13.4507 95.6296 15.056C96.0776 16.6613 96.283 18.696 96.2456 21.16L96.1896 29.392L96.3576 36H88.4056ZM83.5896 30.4C84.5603 30.4 85.587 30.2133 86.6696 29.84V25.696H86.2216C83.459 25.696 81.9283 25.8453 81.6296 26.144C81.443 26.3307 81.2936 26.6107 81.1816 26.984C81.107 27.3573 81.0696 27.712 81.0696 28.048C81.0696 28.944 81.275 29.56 81.6856 29.896C82.0963 30.232 82.731 30.4 83.5896 30.4ZM125.489 11.864C125.825 12.2747 126.068 13.3013 126.217 14.944C126.404 16.5867 126.497 19.088 126.497 22.448V36H116.921V22.56V20.264C116.921 19.0693 116.828 18.3227 116.641 18.024C116.343 17.6507 115.652 17.464 114.569 17.464C114.047 17.464 113.655 17.4827 113.393 17.52C112.348 17.5573 111.265 17.8 110.145 18.248V36H100.569V10.24H108.353L109.417 14.552C112.105 11.304 115.316 9.68 119.049 9.68C120.393 9.68 121.644 9.86667 122.801 10.24C123.996 10.6133 124.892 11.1547 125.489 11.864Z" fill="#E4EDFB"/>
<path d="M148.225 9.68C151.137 9.68 153.377 10.5573 154.945 12.312C156.55 14.0667 157.353 17.1653 157.353 21.608C157.353 24.856 157.017 27.6373 156.345 29.952C155.71 32.2293 154.982 33.6853 154.161 34.32C153.19 35.104 151.753 35.6827 149.849 36.056C147.945 36.4293 145.78 36.616 143.353 36.616C141.486 36.616 139.396 36.4667 137.081 36.168C134.766 35.9067 132.694 35.4773 130.865 34.88V2.4L140.553 2.008V7.272C140.553 7.57067 140.534 8.26133 140.497 9.344C140.497 10.4267 140.46 11.3413 140.385 12.088C140.31 12.7973 140.198 13.3387 140.049 13.712L140.385 14.104C141.244 12.7973 142.326 11.7333 143.633 10.912C144.94 10.0907 146.47 9.68 148.225 9.68ZM146.657 29.896C146.881 29.5227 147.068 28.6453 147.217 27.264C147.404 25.8827 147.497 24.5573 147.497 23.288C147.497 21.7947 147.422 20.6187 147.273 19.76C147.161 18.9013 146.844 18.2293 146.321 17.744C145.836 17.2213 145.07 16.96 144.025 16.96C143.092 16.96 141.897 17.0907 140.441 17.352V30.008C141.822 30.232 143.26 30.344 144.753 30.344C145.836 30.344 146.47 30.1947 146.657 29.896ZM173.486 36.728C169.006 36.728 165.646 35.6827 163.406 33.592C161.203 31.464 160.102 28.1227 160.102 23.568C160.102 21.0667 160.326 18.8827 160.774 17.016C161.259 15.112 161.838 13.7867 162.51 13.04C163.368 12.0693 164.936 11.2667 167.214 10.632C169.528 9.99733 171.694 9.68 173.71 9.68C178.526 9.68 181.96 10.7067 184.014 12.76C186.067 14.8133 187.094 18.0987 187.094 22.616C187.094 27.4693 185.992 31.0347 183.79 33.312C181.587 35.5893 178.152 36.728 173.486 36.728ZM173.654 30.176C175.11 30.176 176.062 29.672 176.51 28.664C176.958 27.6187 177.182 25.7893 177.182 23.176C177.182 21.3467 177.088 19.9467 176.902 18.976C176.715 17.968 176.36 17.24 175.838 16.792C175.352 16.3067 174.587 16.064 173.542 16.064C172.048 16.064 171.19 16.1947 170.966 16.456C170.667 16.7173 170.424 17.5387 170.238 18.92C170.051 20.3013 169.958 21.7387 169.958 23.232C169.958 25.7707 170.2 27.5627 170.686 28.608C171.208 29.6533 172.198 30.176 173.654 30.176ZM193.977 22.84L187.537 10.24H196.833L201.481 20.208L206.185 10.24H215.425L209.041 22.84L216.041 36H206.689L201.481 25.36L196.273 36H186.921L193.977 22.84Z" fill="#3B82F6"/>
<path d="M27.832 34.936L28.2289 35.8539L28.8956 35.5656L28.8276 34.8424L27.832 34.936ZM23.016 36.224L22.8746 35.2341L23.016 36.224ZM5.992 32.64L5.31412 33.3752L5.31412 33.3752L5.992 32.64ZM6.216 7.888L6.8905 8.6263L6.89541 8.62176L6.216 7.888ZM27.16 4.752H28.16V3.97122L27.4025 3.78186L27.16 4.752ZM26.936 8.112L27.9308 8.21403L27.931 8.2115L26.936 8.112ZM26.488 11.192V12.192H27.2688L27.4581 11.4345L26.488 11.192ZM16.856 11.36L16.9072 12.3587L16.919 12.3581L16.9308 12.3572L16.856 11.36ZM14.224 11.864L13.5655 11.1114L13.5534 11.122L13.5417 11.1329L14.224 11.864ZM12.936 15.056L13.9183 15.2431L13.9191 15.2389L12.936 15.056ZM13.44 25.472L12.5313 25.8895L12.5358 25.899L13.44 25.472ZM15.848 28.16L16.2807 27.2585L16.2739 27.2552L16.2671 27.252L15.848 28.16ZM27.216 28.384L28.2116 28.2904L28.1167 27.2808L27.1085 27.3898L27.216 28.384ZM27.832 34.936L27.4351 34.0181C26.1514 34.5733 24.6351 34.9825 22.8746 35.2341L23.016 36.224L23.1574 37.2139C25.0556 36.9428 26.75 36.4934 28.2289 35.8539L27.832 34.936ZM23.016 36.224L22.8746 35.2341C21.0841 35.4898 19.4332 35.616 17.92 35.616V36.616V37.616C19.5428 37.616 21.2893 37.4808 23.1574 37.2139L23.016 36.224ZM17.92 36.616V35.616C13.0166 35.616 9.31001 34.3392 6.66988 31.9048L5.992 32.64L5.31412 33.3752C8.42332 36.2421 12.6687 37.616 17.92 37.616V36.616ZM5.992 32.64L6.66988 31.9048C4.07247 29.5098 2.68 25.7565 2.68 20.432H1.68H0.68C0.68 26.0835 2.1622 30.4689 5.31412 33.3752L5.992 32.64ZM1.68 20.432H2.68C2.68 15.0058 4.14158 11.1376 6.89049 8.62629L6.216 7.888L5.54152 7.14971C2.24242 10.1637 0.68 14.6582 0.68 20.432H1.68ZM6.216 7.888L6.89541 8.62176C9.68024 6.04321 13.6626 4.688 18.984 4.688V3.688V2.688C13.3294 2.688 8.79976 4.13278 5.53659 7.15424L6.216 7.888ZM18.984 3.688V4.688C21.5065 4.688 24.1502 5.03032 26.9175 5.72214L27.16 4.752L27.4025 3.78186C24.4952 3.05501 21.6881 2.688 18.984 2.688V3.688ZM27.16 4.752H26.16C26.16 5.44684 26.0896 6.52627 25.941 8.0125L26.936 8.112L27.931 8.2115C28.0811 6.71106 28.16 5.55048 28.16 4.752H27.16ZM26.936 8.112L25.9412 8.00997C25.792 9.46527 25.6481 10.4284 25.5179 10.9495L26.488 11.192L27.4581 11.4345C27.6265 10.7609 27.7814 9.67073 27.9308 8.21403L26.936 8.112ZM26.488 11.192V10.192H22.96V11.192V12.192H26.488V11.192ZM22.96 11.192V10.192C20.374 10.192 18.3109 10.2481 16.7812 10.3628L16.856 11.36L16.9308 12.3572C18.3878 12.2479 20.394 12.192 22.96 12.192V11.192ZM16.856 11.36L16.8048 10.3613C16.0556 10.3997 15.4209 10.4635 14.9179 10.5598C14.4727 10.6451 13.9357 10.7875 13.5655 11.1114L14.224 11.864L14.8825 12.6166C14.811 12.6791 14.862 12.6069 15.2941 12.5242C15.6684 12.4525 16.2004 12.3949 16.9072 12.3587L16.856 11.36ZM14.224 11.864L13.5417 11.1329C12.726 11.8942 12.2549 13.2499 11.9529 14.8731L12.936 15.056L13.9191 15.2389C14.2145 13.6514 14.602 12.8791 14.9063 12.5951L14.224 11.864ZM12.936 15.056L11.9537 14.8689C11.6444 16.4927 11.488 18.0675 11.488 19.592H12.488H13.488C13.488 18.2045 13.6303 16.7553 13.9183 15.2431L12.936 15.056ZM12.488 19.592H11.488C11.488 22.1906 11.8092 24.3178 12.5313 25.8895L13.44 25.472L14.3487 25.0545C13.8015 23.8636 13.488 22.0707 13.488 19.592H12.488ZM13.44 25.472L12.5358 25.899C13.2319 27.3731 14.175 28.4892 15.4289 29.068L15.848 28.16L16.2671 27.252C15.5797 26.9348 14.9175 26.2589 14.3442 25.045L13.44 25.472ZM15.848 28.16L15.4153 29.0615C16.565 29.6134 18.3097 29.832 20.496 29.832V28.832V27.832C18.3516 27.832 16.9977 27.6026 16.2807 27.2585L15.848 28.16ZM20.496 28.832V29.832C22.2642 29.832 24.544 29.6787 27.3235 29.3782L27.216 28.384L27.1085 27.3898C24.3627 27.6866 22.1624 27.832 20.496 27.832V28.832ZM27.216 28.384L26.2204 28.4776L26.8364 35.0296L27.832 34.936L28.8276 34.8424L28.2116 28.2904L27.216 28.384ZM31.1749 2.4L31.134 1.40084L30.1749 1.4401V2.4H31.1749ZM40.7509 2.008H41.7509V0.966224L40.71 1.00883L40.7509 2.008ZM40.7509 36V37H41.7509V36H40.7509ZM31.1749 36H30.1749V37H31.1749V36ZM31.1749 2.4L31.2158 3.39916L40.7918 3.00716L40.7509 2.008L40.71 1.00883L31.134 1.40084L31.1749 2.4ZM40.7509 2.008H39.7509V36H40.7509H41.7509V2.008H40.7509ZM40.7509 36V35H31.1749V36V37H40.7509V36ZM31.1749 36H32.1749V2.4H31.1749H30.1749V36H31.1749ZM66.3311 29V28H66.2944L66.2578 28.0027L66.3311 29ZM68.1791 28.888L69.1687 28.7439L69.0332 27.8134L68.0961 27.8915L68.1791 28.888ZM69.0191 34.656L69.4427 35.5619L70.1158 35.2472L70.0087 34.5119L69.0191 34.656ZM47.9071 33.424L47.218 34.1487L47.224 34.1543L47.9071 33.424ZM45.3311 17.128L44.3696 16.8533L44.3673 16.8613L44.3652 16.8693L45.3311 17.128ZM47.3471 12.76L46.6238 12.0695L46.6154 12.0783L46.6072 12.0873L47.3471 12.76ZM51.7151 10.632L51.9854 11.5948L51.9854 11.5948L51.7151 10.632ZM65.6031 11.528L65.0236 12.343L65.0236 12.343L65.6031 11.528ZM68.9071 16.512L67.936 16.7505L67.937 16.7545L68.9071 16.512ZM69.6911 24.968L69.7498 25.9663L70.6911 25.9109V24.968H69.6911ZM54.2911 25.192V24.192H53.2911V25.192H54.2911ZM55.0191 27.88L54.243 28.5106L54.2545 28.5248L54.2665 28.5385L55.0191 27.88ZM57.2031 29.056L57.007 30.0366L57.026 30.0404L57.0451 30.0434L57.2031 29.056ZM54.8511 16.4L55.2983 17.2944L55.3159 17.2857L55.333 17.2762L54.8511 16.4ZM54.3471 17.856L55.3387 17.9853L55.3387 17.9853L54.3471 17.856ZM54.1231 20.768L53.1237 20.7335L53.088 21.768H54.1231V20.768ZM60.8431 20.712L60.8907 21.7109L61.8431 21.6655V20.712H60.8431ZM60.0591 16.904L59.2207 17.449L59.23 17.4634L59.2399 17.4775L60.0591 16.904ZM61.1231 29.28V30.28C62.0984 30.28 63.8693 30.1837 66.4045 29.9973L66.3311 29L66.2578 28.0027C63.7156 28.1896 62.0146 28.28 61.1231 28.28V29.28ZM66.3311 29V30C66.7144 30 67.3695 29.9589 68.2622 29.8845L68.1791 28.888L68.0961 27.8915C67.1967 27.9664 66.6199 28 66.3311 28V29ZM68.1791 28.888L67.1896 29.0321L68.0296 34.8001L69.0191 34.656L70.0087 34.5119L69.1687 28.7439L68.1791 28.888ZM69.0191 34.656L68.5956 33.7501C65.8991 35.0108 62.3252 35.672 57.8191 35.672V36.672V37.672C62.497 37.672 66.3898 36.9892 69.4427 35.5619L69.0191 34.656ZM57.8191 36.672V35.672C53.688 35.672 50.6622 34.632 48.5903 32.6937L47.9071 33.424L47.224 34.1543C49.7813 36.5467 53.3636 37.672 57.8191 37.672V36.672ZM47.9071 33.424L48.5962 32.6993C46.5848 30.7869 45.4911 27.8276 45.4911 23.624H44.4911H43.4911C43.4911 28.1564 44.6747 31.7305 47.2181 34.1487L47.9071 33.424ZM44.4911 23.624H45.4911C45.4911 21.4683 45.7605 19.3901 46.2971 17.3867L45.3311 17.128L44.3652 16.8693C43.7818 19.0472 43.4911 21.2997 43.4911 23.624H44.4911ZM45.3311 17.128L46.2926 17.4027C46.8807 15.3444 47.5022 14.076 48.0871 13.4327L47.3471 12.76L46.6072 12.0873C45.6987 13.0867 44.9762 14.7303 44.3696 16.8533L45.3311 17.128ZM47.3471 12.76L48.0705 13.4505C48.6603 12.8326 49.8947 12.1817 51.9854 11.5948L51.7151 10.632L51.4449 9.66921C49.2796 10.277 47.6019 11.0448 46.6238 12.0695L47.3471 12.76ZM51.7151 10.632L51.9854 11.5948C54.0304 11.0207 56.0489 10.736 58.0431 10.736V9.736V8.736C55.856 8.736 53.6558 9.0486 51.4449 9.66921L51.7151 10.632ZM58.0431 9.736V10.736C61.3149 10.736 63.5895 11.3231 65.0236 12.343L65.6031 11.528L66.1826 10.713C64.2568 9.34355 61.4913 8.736 58.0431 8.736V9.736ZM65.6031 11.528L65.0236 12.343C66.4952 13.3894 67.4666 14.8395 67.936 16.7505L68.9071 16.512L69.8783 16.2735C69.3023 13.9285 68.071 12.0559 66.1826 10.713L65.6031 11.528ZM68.9071 16.512L67.937 16.7545C68.4312 18.7315 68.6911 21.4578 68.6911 24.968H69.6911H70.6911C70.6911 21.3848 70.4284 18.4738 69.8773 16.2695L68.9071 16.512ZM69.6911 24.968L69.6324 23.9697C67.1124 24.118 64.6493 24.192 62.2431 24.192V25.192V26.192C64.6903 26.192 67.1926 26.1167 69.7498 25.9663L69.6911 24.968ZM62.2431 25.192V24.192H54.2911V25.192V26.192H62.2431V25.192ZM54.2911 25.192H53.2911C53.2911 26.4963 53.5519 27.66 54.243 28.5106L55.0191 27.88L55.7952 27.2494C55.5157 26.9053 55.2911 26.2771 55.2911 25.192H54.2911ZM55.0191 27.88L54.2665 28.5385C54.9614 29.3326 55.9021 29.8156 57.007 30.0366L57.2031 29.056L57.3992 28.0754C56.6374 27.9231 56.1222 27.622 55.7717 27.2215L55.0191 27.88ZM57.2031 29.056L57.0451 30.0434C58.056 30.2052 59.4241 30.28 61.1231 30.28V29.28V28.28C59.4621 28.28 58.2169 28.2055 57.3611 28.0686L57.2031 29.056ZM54.8511 16.4L54.4039 15.5056C53.9099 15.7526 53.7049 16.2529 53.6121 16.5209C53.496 16.8565 53.4152 17.2691 53.3555 17.7267L54.3471 17.856L55.3387 17.9853C55.391 17.5843 55.4503 17.3248 55.5021 17.1751C55.5278 17.1009 55.541 17.0854 55.5297 17.1027C55.5208 17.1161 55.4535 17.2169 55.2983 17.2944L54.8511 16.4ZM54.3471 17.856L53.3555 17.7267C53.2386 18.6235 53.1619 19.6266 53.1237 20.7335L54.1231 20.768L55.1225 20.8025C55.159 19.744 55.2317 18.8059 55.3387 17.9853L54.3471 17.856ZM54.1231 20.768V21.768H57.0351V20.768V19.768H54.1231V20.768ZM57.0351 20.768V21.768C58.7912 21.768 60.0811 21.7494 60.8907 21.7109L60.8431 20.712L60.7956 19.7131C60.0372 19.7492 58.7884 19.768 57.0351 19.768V20.768ZM60.8431 20.712H61.8431C61.8431 18.8808 61.5873 17.3433 60.8784 16.3305L60.0591 16.904L59.2399 17.4775C59.5763 17.9581 59.8431 18.9592 59.8431 20.712H60.8431ZM60.0591 16.904L60.8976 16.359C60.1616 15.2268 58.9111 14.784 57.4831 14.784V15.784V16.784C58.5192 16.784 58.9859 17.0879 59.2207 17.449L60.0591 16.904ZM57.4831 15.784V14.784C56.3375 14.784 55.2884 15.0182 54.3692 15.5238L54.8511 16.4L55.333 17.2762C55.9072 16.9604 56.6128 16.784 57.4831 16.784V15.784ZM88.4056 36L87.4364 36.2462L87.6278 37H88.4056V36ZM87.5096 32.472L88.4789 32.2258L87.8957 29.9298L86.6572 31.9492L87.5096 32.472ZM74.1816 34.6L73.5107 35.3415L73.5199 35.3499L73.5294 35.358L74.1816 34.6ZM73.1736 24.576L72.3856 23.9603L72.3829 23.9638L73.1736 24.576ZM76.9816 22.056L76.7069 21.0945L76.6996 21.0966L76.6922 21.0988L76.9816 22.056ZM86.6696 21.048L86.6867 22.0479L87.6696 22.0311V21.048H86.6696ZM86.3336 17.128L85.7089 17.9089L85.7428 17.936L85.7789 17.96L86.3336 17.128ZM81.9096 17.016L81.9513 18.0151L81.9637 18.0146L81.9761 18.0138L81.9096 17.016ZM74.6296 17.632L73.6404 17.7785L73.7815 18.7311L74.7387 18.626L74.6296 17.632ZM73.9576 11.136L73.7544 10.1569L72.9038 10.3334L72.9597 11.2004L73.9576 11.136ZM80.1736 10.128L80.2934 11.1208L80.3019 11.1198L80.3103 11.1186L80.1736 10.128ZM92.7176 11.192L92.1582 12.0208L92.1654 12.0257L92.1726 12.0304L92.7176 11.192ZM95.6296 15.056L96.5928 14.7872L96.5928 14.7872L95.6296 15.056ZM96.2456 21.16L95.2457 21.1448L95.2456 21.1532L96.2456 21.16ZM96.1896 29.392L95.1896 29.3852L95.1895 29.4013L95.1899 29.4174L96.1896 29.392ZM96.3576 36V37H97.3834L97.3573 35.9746L96.3576 36ZM86.6696 29.84L86.9956 30.7854L87.6696 30.553V29.84H86.6696ZM86.6696 25.696H87.6696V24.696H86.6696V25.696ZM81.6296 26.144L80.9225 25.4369L80.9225 25.4369L81.6296 26.144ZM81.1816 26.984L80.2238 26.6967L80.2103 26.7417L80.201 26.7879L81.1816 26.984ZM81.6856 29.896L81.0524 30.67L81.0524 30.67L81.6856 29.896ZM88.4056 36L89.3749 35.7538L88.4789 32.2258L87.5096 32.472L86.5404 32.7182L87.4364 36.2462L88.4056 36ZM87.5096 32.472L86.6572 31.9492C85.1057 34.4788 83.0256 35.672 80.3416 35.672V36.672V37.672C83.7803 37.672 86.4789 36.0652 88.3621 32.9948L87.5096 32.472ZM80.3416 36.672V35.672C78.0341 35.672 76.2259 35.0398 74.8339 33.842L74.1816 34.6L73.5294 35.358C75.348 36.9228 77.6465 37.672 80.3416 37.672V36.672ZM74.1816 34.6L74.8525 33.8585C73.5358 32.6671 72.8296 30.9817 72.8296 28.664H71.8296H70.8296C70.8296 31.4236 71.6914 33.6955 73.5107 35.3415L74.1816 34.6ZM71.8296 28.664H72.8296C72.8296 27.3007 73.214 26.1574 73.9643 25.1882L73.1736 24.576L72.3829 23.9638C71.3413 25.3093 70.8296 26.8913 70.8296 28.664H71.8296ZM73.1736 24.576L73.9616 25.1916C74.7546 24.1767 75.8412 23.4455 77.271 23.0132L76.9816 22.056L76.6922 21.0988C74.9114 21.6372 73.4594 22.5859 72.3856 23.9604L73.1736 24.576ZM76.9816 22.056L77.2563 23.0175C79.2158 22.4577 82.3368 22.1222 86.6867 22.0479L86.6696 21.048L86.6525 20.0481C82.2664 20.1231 78.9288 20.4597 76.7069 21.0945L76.9816 22.056ZM86.6696 21.048H87.6696C87.6696 19.8076 87.6417 18.831 87.582 18.1346C87.5525 17.7904 87.5126 17.4819 87.455 17.2321C87.4265 17.1088 87.3865 16.967 87.3254 16.8303C87.2763 16.7204 87.1539 16.473 86.8883 16.296L86.3336 17.128L85.7789 17.96C85.5693 17.8203 85.4995 17.6464 85.4994 17.6462C85.4873 17.6192 85.4927 17.6232 85.5062 17.6819C85.5326 17.7961 85.5628 17.9963 85.5893 18.3054C85.6416 18.9156 85.6696 19.8244 85.6696 21.048H86.6696ZM86.3336 17.128L86.9583 16.3471C86.7598 16.1883 86.5395 16.1108 86.3913 16.0685C86.2267 16.0214 86.0484 15.9901 85.8697 15.9677C85.5117 15.923 85.0635 15.904 84.5416 15.904V16.904V17.904C85.0278 17.904 85.3823 17.9224 85.6216 17.9523C85.7416 17.9673 85.8105 17.9826 85.8419 17.9915C85.8897 18.0052 85.8141 17.993 85.7089 17.9089L86.3336 17.128ZM84.5416 16.904V15.904C83.8741 15.904 82.9712 15.943 81.8431 16.0182L81.9096 17.016L81.9761 18.0138C83.088 17.9397 83.9398 17.904 84.5416 17.904V16.904ZM81.9096 17.016L81.868 16.0169C80.0431 16.0929 77.5909 16.301 74.5205 16.638L74.6296 17.632L74.7387 18.626C77.791 18.291 80.1921 18.0884 81.9513 18.0151L81.9096 17.016ZM74.6296 17.632L75.6188 17.4855C75.3247 15.5001 75.1033 13.3625 74.9556 11.0716L73.9576 11.136L72.9597 11.2004C73.1106 13.5389 73.3372 15.7319 73.6404 17.7785L74.6296 17.632ZM73.9576 11.136L74.1608 12.1151C76.1098 11.7106 78.1539 11.379 80.2934 11.1208L80.1736 10.128L80.0538 9.1352C77.8627 9.39965 75.7627 9.74004 73.7544 10.1569L73.9576 11.136ZM80.1736 10.128L80.3103 11.1186C82.4419 10.8246 84.3363 10.68 85.9976 10.68V9.68V8.68C84.2242 8.68 82.236 8.83406 80.037 9.13738L80.1736 10.128ZM85.9976 9.68V10.68C88.9032 10.68 90.9065 11.176 92.1582 12.0208L92.7176 11.192L93.2771 10.3632C91.542 9.19199 89.0654 8.68 85.9976 8.68V9.68ZM92.7176 11.192L92.1726 12.0304C93.4771 12.8783 94.2886 13.9708 94.6664 15.3248L95.6296 15.056L96.5928 14.7872C96.0747 12.9305 94.9448 11.447 93.2626 10.3536L92.7176 11.192ZM95.6296 15.056L94.6664 15.3248C95.0795 16.805 95.2822 18.7355 95.2457 21.1448L96.2456 21.16L97.2455 21.1751C97.2837 18.6565 97.0757 16.5177 96.5928 14.7872L95.6296 15.056ZM96.2456 21.16L95.2456 21.1532L95.1896 29.3852L96.1896 29.392L97.1896 29.3988L97.2456 21.1668L96.2456 21.16ZM96.1896 29.392L95.1899 29.4174L95.3579 36.0254L96.3576 36L97.3573 35.9746L97.1893 29.3666L96.1896 29.392ZM96.3576 36V35H88.4056V36V37H96.3576V36ZM83.5896 30.4V31.4C84.6892 31.4 85.8265 31.1885 86.9956 30.7854L86.6696 29.84L86.3436 28.8946C85.3475 29.2381 84.4314 29.4 83.5896 29.4V30.4ZM86.6696 29.84H87.6696V25.696H86.6696H85.6696V29.84H86.6696ZM86.6696 25.696V24.696H86.2216V25.696V26.696H86.6696V25.696ZM86.2216 25.696V24.696C84.829 24.696 83.7179 24.7334 82.9045 24.8127C82.5001 24.8522 82.1414 24.9046 81.8468 24.9767C81.6098 25.0347 81.2104 25.149 80.9225 25.4369L81.6296 26.144L82.3367 26.8511C82.1981 26.9897 82.1021 26.9733 82.3225 26.9193C82.4852 26.8794 82.7378 26.8385 83.0987 26.8033C83.816 26.7333 84.8516 26.696 86.2216 26.696V25.696ZM81.6296 26.144L80.9225 25.4369C80.5763 25.7832 80.3624 26.2348 80.2238 26.6967L81.1816 26.984L82.1395 27.2713C82.2249 26.9866 82.3097 26.8782 82.3367 26.8511L81.6296 26.144ZM81.1816 26.984L80.201 26.7879C80.1151 27.2174 80.0696 27.6381 80.0696 28.048H81.0696H82.0696C82.0696 27.7859 82.0988 27.4972 82.1622 27.1801L81.1816 26.984ZM81.0696 28.048H80.0696C80.0696 29.0435 80.2895 30.0458 81.0524 30.67L81.6856 29.896L82.3189 29.122C82.2604 29.0742 82.0696 28.8445 82.0696 28.048H81.0696ZM81.6856 29.896L81.0524 30.67C81.7229 31.2186 82.633 31.4 83.5896 31.4V30.4V29.4C82.8289 29.4 82.4697 29.2454 82.3189 29.122L81.6856 29.896ZM125.489 11.864L126.263 11.2308L126.259 11.2253L126.254 11.2199L125.489 11.864ZM126.217 14.944L125.222 15.0345L125.223 15.0457L125.224 15.0569L126.217 14.944ZM126.497 36V37H127.497V36H126.497ZM116.921 36H115.921V37H116.921V36ZM116.641 18.024L117.489 17.494L117.459 17.4447L117.422 17.3993L116.641 18.024ZM113.393 17.52L113.429 18.5194L113.482 18.5175L113.535 18.5099L113.393 17.52ZM110.145 18.248L109.774 17.3195L109.145 17.571V18.248H110.145ZM110.145 36V37H111.145V36H110.145ZM100.569 36H99.5694V37H100.569V36ZM100.569 10.24V9.24H99.5694V10.24H100.569ZM108.353 10.24L109.324 10.0004L109.137 9.24H108.353V10.24ZM109.417 14.552L108.447 14.7916L108.922 16.7189L110.188 15.1896L109.417 14.552ZM122.801 10.24L122.494 11.1917L122.503 11.1945L122.801 10.24ZM125.489 11.864L124.715 12.4972C124.713 12.4946 124.746 12.5361 124.796 12.661C124.845 12.7808 124.897 12.9481 124.95 13.172C125.056 13.6214 125.149 14.2372 125.222 15.0345L126.217 14.944L127.213 14.8535C127.136 14.0082 127.033 13.2892 126.897 12.712C126.768 12.1689 126.583 11.6209 126.263 11.2308L125.489 11.864ZM126.217 14.944L125.224 15.0569C125.404 16.6409 125.497 19.0956 125.497 22.448H126.497H127.497C127.497 19.0804 127.404 16.5325 127.211 14.8311L126.217 14.944ZM126.497 22.448H125.497V36H126.497H127.497V22.448H126.497ZM126.497 36V35H116.921V36V37H126.497V36ZM116.921 36H117.921V22.56H116.921H115.921V36H116.921ZM116.921 22.56H117.921V20.264H116.921H115.921V22.56H116.921ZM116.921 20.264H117.921C117.921 19.6462 117.898 19.1151 117.844 18.684C117.795 18.2939 117.707 17.8421 117.489 17.494L116.641 18.024L115.793 18.554C115.763 18.5045 115.815 18.5754 115.859 18.932C115.899 19.2476 115.921 19.6871 115.921 20.264H116.921ZM116.641 18.024L117.422 17.3993C117.089 16.9827 116.614 16.7613 116.16 16.6386C115.698 16.5138 115.159 16.464 114.569 16.464V17.464V18.464C115.063 18.464 115.41 18.5076 115.639 18.5694C115.875 18.6334 115.895 18.692 115.861 18.6487L116.641 18.024ZM114.569 17.464V16.464C114.036 16.464 113.586 16.4823 113.252 16.5301L113.393 17.52L113.535 18.5099C113.724 18.483 114.058 18.464 114.569 18.464V17.464ZM113.393 17.52L113.358 16.5206C112.181 16.5627 110.985 16.8352 109.774 17.3195L110.145 18.248L110.517 19.1765C111.546 18.7648 112.515 18.552 113.429 18.5194L113.393 17.52ZM110.145 18.248H109.145V36H110.145H111.145V18.248H110.145ZM110.145 36V35H100.569V36V37H110.145V36ZM100.569 36H101.569V10.24H100.569H99.5694V36H100.569ZM100.569 10.24V11.24H108.353V10.24V9.24H100.569V10.24ZM108.353 10.24L107.383 10.4796L108.447 14.7916L109.417 14.552L110.388 14.3124L109.324 10.0004L108.353 10.24ZM109.417 14.552L110.188 15.1896C112.713 12.1377 115.655 10.68 119.049 10.68V9.68V8.68C114.977 8.68 111.497 10.4703 108.647 13.9144L109.417 14.552ZM119.049 9.68V10.68C120.3 10.68 121.446 10.8535 122.494 11.1917L122.801 10.24L123.108 9.28829C121.842 8.87978 120.487 8.68 119.049 8.68V9.68ZM122.801 10.24L122.503 11.1945C123.578 11.5303 124.286 11.9873 124.725 12.5081L125.489 11.864L126.254 11.2199C125.498 10.322 124.415 9.69639 123.1 9.28552L122.801 10.24ZM154.945 12.312L154.199 12.9784L154.207 12.987L154.945 12.312ZM156.345 29.952L155.385 29.6732L155.382 29.6835L156.345 29.952ZM154.161 34.32L153.55 33.5287L153.541 33.5353L153.533 33.5421L154.161 34.32ZM149.849 36.056L149.657 35.0747L149.849 36.056ZM137.081 36.168L137.209 35.1762L137.201 35.1752L137.193 35.1743L137.081 36.168ZM130.865 34.88H129.865V35.6054L130.555 35.8306L130.865 34.88ZM130.865 2.4L130.825 1.40082L129.865 1.43964V2.4H130.865ZM140.553 2.008H141.553V0.966716L140.513 1.00881L140.553 2.008ZM140.497 9.344L139.498 9.30954L139.497 9.32676V9.344H140.497ZM140.385 12.088L141.38 12.1927L141.38 12.1875L140.385 12.088ZM140.049 13.712L139.121 13.3406L138.896 13.9029L139.29 14.3628L140.049 13.712ZM140.385 14.104L139.626 14.7548L140.491 15.764L141.221 14.6532L140.385 14.104ZM143.633 10.912L144.165 11.7586L144.165 11.7586L143.633 10.912ZM146.657 29.896L147.505 30.426L147.51 30.4183L147.514 30.4105L146.657 29.896ZM147.217 27.264L146.226 27.1301L146.224 27.1433L146.223 27.1565L147.217 27.264ZM147.273 19.76L146.281 19.8893L146.284 19.9104L146.288 19.9313L147.273 19.76ZM146.321 17.744L145.588 18.4245L145.613 18.4516L145.641 18.4768L146.321 17.744ZM140.441 17.352L140.264 16.3677L139.441 16.5155V17.352H140.441ZM140.441 30.008H139.441V30.8589L140.281 30.9951L140.441 30.008ZM148.225 9.68V10.68C150.925 10.68 152.865 11.4849 154.199 12.9783L154.945 12.312L155.691 11.6457C153.889 9.62977 151.349 8.68 148.225 8.68V9.68ZM154.945 12.312L154.207 12.987C155.548 14.4527 156.353 17.223 156.353 21.608H157.353H158.353C158.353 17.1077 157.553 13.6806 155.683 11.637L154.945 12.312ZM157.353 21.608H156.353C156.353 24.7921 156.023 27.4743 155.385 29.6732L156.345 29.952L157.305 30.2308C158.011 27.8003 158.353 24.9199 158.353 21.608H157.353ZM156.345 29.952L155.382 29.6835C155.075 30.7856 154.754 31.6533 154.429 32.3048C154.098 32.9669 153.793 33.3409 153.55 33.5287L154.161 34.32L154.772 35.1113C155.351 34.6644 155.82 33.9931 156.217 33.1992C156.62 32.3947 156.981 31.3958 157.308 30.2205L156.345 29.952ZM154.161 34.32L153.533 33.5421C152.74 34.1825 151.481 34.7169 149.657 35.0747L149.849 36.056L150.041 37.0373C152.025 36.6484 153.641 36.0255 154.789 35.0979L154.161 34.32ZM149.849 36.056L149.657 35.0747C147.829 35.433 145.73 35.616 143.353 35.616V36.616V37.616C145.829 37.616 148.061 37.4257 150.041 37.0373L149.849 36.056ZM143.353 36.616V35.616C141.538 35.616 139.491 35.4707 137.209 35.1762L137.081 36.168L136.953 37.1598C139.3 37.4626 141.435 37.616 143.353 37.616V36.616ZM137.081 36.168L137.193 35.1743C134.932 34.9191 132.929 34.5018 131.175 33.9294L130.865 34.88L130.555 35.8306C132.46 36.4528 134.6 36.8943 136.969 37.1617L137.081 36.168ZM130.865 34.88H131.865V2.4H130.865H129.865V34.88H130.865ZM130.865 2.4L130.905 3.39918L140.593 3.00718L140.553 2.008L140.513 1.00881L130.825 1.40082L130.865 2.4ZM140.553 2.008H139.553V7.272H140.553H141.553V2.008H140.553ZM140.553 7.272H139.553C139.553 7.54983 139.535 8.22161 139.498 9.30954L140.497 9.344L141.496 9.37846C141.534 8.30106 141.553 7.5915 141.553 7.272H140.553ZM140.497 9.344H139.497C139.497 10.4066 139.46 11.2858 139.39 11.9885L140.385 12.088L141.38 12.1875C141.459 11.3969 141.497 10.4467 141.497 9.344H140.497ZM140.385 12.088L139.39 11.9833C139.319 12.6601 139.219 13.0943 139.121 13.3406L140.049 13.712L140.977 14.0834C141.178 13.583 141.301 12.9346 141.38 12.1927L140.385 12.088ZM140.049 13.712L139.29 14.3628L139.626 14.7548L140.385 14.104L141.144 13.4532L140.808 13.0612L140.049 13.712ZM140.385 14.104L141.221 14.6532C142.002 13.4646 142.981 12.5027 144.165 11.7586L143.633 10.912L143.101 10.0654C141.671 10.964 140.486 12.13 139.549 13.5548L140.385 14.104ZM143.633 10.912L144.165 11.7586C145.291 11.0507 146.632 10.68 148.225 10.68V9.68V8.68C146.308 8.68 144.588 9.13063 143.101 10.0654L143.633 10.912ZM146.657 29.896L147.514 30.4105C147.717 30.0737 147.846 29.6233 147.943 29.1661C148.046 28.6814 148.135 28.0798 148.211 27.3715L147.217 27.264L146.223 27.1565C146.15 27.8295 146.07 28.3573 145.987 28.7499C145.945 28.9458 145.905 29.097 145.868 29.2095C145.85 29.2652 145.834 29.3071 145.821 29.3374C145.814 29.3523 145.809 29.3634 145.805 29.371C145.801 29.3786 145.799 29.3819 145.8 29.3815L146.657 29.896ZM147.217 27.264L148.208 27.3979C148.4 25.9765 148.497 24.6062 148.497 23.288H147.497H146.497C146.497 24.5084 146.407 25.7889 146.226 27.1301L147.217 27.264ZM147.497 23.288H148.497C148.497 21.7716 148.422 20.5299 148.258 19.5887L147.273 19.76L146.288 19.9313C146.423 20.7074 146.497 21.8177 146.497 23.288H147.497ZM147.273 19.76L148.265 19.6307C148.129 18.5921 147.73 17.6873 147.001 17.0112L146.321 17.744L145.641 18.4768C145.958 18.7714 146.193 19.2106 146.281 19.8893L147.273 19.76ZM146.321 17.744L147.054 17.0635C146.306 16.2579 145.218 15.96 144.025 15.96V16.96V17.96C144.923 17.96 145.366 18.1848 145.588 18.4245L146.321 17.744ZM144.025 16.96V15.96C143.009 15.96 141.749 16.1012 140.264 16.3677L140.441 17.352L140.618 18.3363C142.045 18.0801 143.175 17.96 144.025 17.96V16.96ZM140.441 17.352H139.441V30.008H140.441H141.441V17.352H140.441ZM140.441 30.008L140.281 30.9951C141.719 31.2282 143.21 31.344 144.753 31.344V30.344V29.344C143.31 29.344 141.926 29.2358 140.601 29.0209L140.441 30.008ZM144.753 30.344V31.344C145.328 31.344 145.845 31.3055 146.27 31.2054C146.647 31.1166 147.193 30.926 147.505 30.426L146.657 29.896L145.809 29.366C145.879 29.2548 145.954 29.2143 145.954 29.2141C145.954 29.2141 145.915 29.2344 145.812 29.2586C145.603 29.3078 145.261 29.344 144.753 29.344V30.344ZM163.406 33.592L162.711 34.3112L162.717 34.3172L162.723 34.3231L163.406 33.592ZM160.774 17.016L159.805 16.769L159.801 16.7826L160.774 17.016ZM162.51 13.04L163.253 13.709L163.259 13.7026L162.51 13.04ZM167.214 10.632L166.949 9.66759L166.945 9.66871L167.214 10.632ZM183.79 33.312L184.509 34.0072L184.509 34.0072L183.79 33.312ZM176.51 28.664L177.424 29.0702L177.429 29.0579L176.51 28.664ZM176.902 18.976L175.919 19.1581L175.92 19.1648L176.902 18.976ZM175.838 16.792L175.131 17.4991L175.158 17.5263L175.187 17.5513L175.838 16.792ZM170.966 16.456L171.624 17.2086L171.678 17.1613L171.725 17.1068L170.966 16.456ZM170.238 18.92L171.229 19.0539L171.229 19.0539L170.238 18.92ZM170.686 28.608L169.779 29.0291L169.785 29.0423L169.791 29.0552L170.686 28.608ZM173.486 36.728V35.728C169.143 35.728 166.073 34.7134 164.088 32.8609L163.406 33.592L162.723 34.3231C165.219 36.6519 168.868 37.728 173.486 37.728V36.728ZM163.406 33.592L164.101 32.8728C162.171 31.0084 161.102 27.9832 161.102 23.568H160.102H159.102C159.102 28.2622 160.235 31.9196 162.711 34.3112L163.406 33.592ZM160.102 23.568H161.102C161.102 21.123 161.321 19.0206 161.746 17.2494L160.774 17.016L159.801 16.7826C159.331 18.7447 159.102 21.0103 159.102 23.568H160.102ZM160.774 17.016L161.743 17.263C162.219 15.3931 162.751 14.2673 163.253 13.709L162.51 13.04L161.767 12.371C160.925 13.306 160.299 14.8309 159.805 16.769L160.774 17.016ZM162.51 13.04L163.259 13.7026C163.922 12.9529 165.259 12.2149 167.482 11.5953L167.214 10.632L166.945 9.66871C164.614 10.3184 162.815 11.1858 161.761 12.3774L162.51 13.04ZM167.214 10.632L167.478 11.5964C169.723 10.981 171.798 10.68 173.71 10.68V9.68V8.68C171.589 8.68 169.334 9.01365 166.949 9.6676L167.214 10.632ZM173.71 9.68V10.68C178.426 10.68 181.532 11.6926 183.307 13.4671L184.014 12.76L184.721 12.0529C182.389 9.72073 178.626 8.68 173.71 8.68V9.68ZM184.014 12.76L183.307 13.4671C185.091 15.2513 186.094 18.2204 186.094 22.616H187.094H188.094C188.094 17.9769 187.043 14.3754 184.721 12.0529L184.014 12.76ZM187.094 22.616H186.094C186.094 27.3444 185.018 30.6043 183.071 32.6168L183.79 33.312L184.509 34.0072C186.967 31.4651 188.094 27.5942 188.094 22.616H187.094ZM183.79 33.312L183.071 32.6168C181.13 34.6232 178.01 35.728 173.486 35.728V36.728V37.728C178.295 37.728 182.044 36.5555 184.509 34.0072L183.79 33.312ZM173.654 30.176V31.176C174.49 31.176 175.266 31.0322 175.928 30.6818C176.607 30.3223 177.111 29.7735 177.424 29.0701L176.51 28.664L175.596 28.2579C175.461 28.5625 175.265 28.7697 174.992 28.9142C174.702 29.0678 174.274 29.176 173.654 29.176V30.176ZM176.51 28.664L177.429 29.0579C177.965 27.8072 178.182 25.7936 178.182 23.176H177.182H176.182C176.182 25.785 175.951 27.4302 175.591 28.2701L176.51 28.664ZM177.182 23.176H178.182C178.182 21.327 178.089 19.8519 177.884 18.7872L176.902 18.976L175.92 19.1648C176.088 20.0415 176.182 21.3663 176.182 23.176H177.182ZM176.902 18.976L177.885 18.7939C177.676 17.6669 177.252 16.687 176.489 16.0327L175.838 16.792L175.187 17.5513C175.469 17.793 175.754 18.2691 175.919 19.1581L176.902 18.976ZM175.838 16.792L176.545 16.0849C175.794 15.3338 174.716 15.064 173.542 15.064V16.064V17.064C174.458 17.064 174.911 17.2796 175.131 17.4991L175.838 16.792ZM173.542 16.064V15.064C172.775 15.064 172.129 15.097 171.627 15.1734C171.377 15.2115 171.132 15.2647 170.912 15.3442C170.711 15.417 170.427 15.5484 170.207 15.8052L170.966 16.456L171.725 17.1068C171.617 17.233 171.524 17.25 171.593 17.2248C171.644 17.2063 171.749 17.1779 171.928 17.1506C172.285 17.0964 172.815 17.064 173.542 17.064V16.064ZM170.966 16.456L170.307 15.7034C169.925 16.0379 169.727 16.5588 169.601 16.9847C169.459 17.4649 169.343 18.072 169.247 18.7861L170.238 18.92L171.229 19.0539C171.319 18.3867 171.418 17.8924 171.519 17.5513C171.636 17.1558 171.708 17.1354 171.624 17.2086L170.966 16.456ZM170.238 18.92L169.247 18.7861C169.054 20.2148 168.958 21.697 168.958 23.232H169.958H170.958C170.958 21.7803 171.049 20.3878 171.229 19.0539L170.238 18.92ZM169.958 23.232H168.958C168.958 25.7821 169.194 27.7687 169.779 29.0291L170.686 28.608L171.593 28.1869C171.207 27.3567 170.958 25.7592 170.958 23.232H169.958ZM170.686 28.608L169.791 29.0552C170.528 30.5288 171.931 31.176 173.654 31.176V30.176V29.176C172.465 29.176 171.889 28.7779 171.58 28.1608L170.686 28.608ZM193.977 22.84L194.858 23.3125L195.105 22.8511L194.867 22.3849L193.977 22.84ZM187.537 10.24V9.24H185.902L186.646 10.6951L187.537 10.24ZM196.833 10.24L197.739 9.81739L197.47 9.24H196.833V10.24ZM201.481 20.208L200.574 20.6306L201.475 22.5626L202.385 20.6348L201.481 20.208ZM206.185 10.24V9.24H205.551L205.28 9.81322L206.185 10.24ZM215.425 10.24L216.317 10.692L217.052 9.24H215.425V10.24ZM209.041 22.84L208.149 22.388L207.914 22.8512L208.158 23.3096L209.041 22.84ZM216.041 36V37H217.705L216.923 35.5304L216.041 36ZM206.689 36L205.79 36.4396L206.065 37H206.689V36ZM201.481 25.36L202.379 24.9204L201.481 23.0854L200.582 24.9204L201.481 25.36ZM196.273 36V37H196.896L197.171 36.4396L196.273 36ZM186.921 36L186.039 35.5275L185.25 37H186.921V36ZM193.977 22.84L194.867 22.3849L188.427 9.78489L187.537 10.24L186.646 10.6951L193.086 23.2951L193.977 22.84ZM187.537 10.24V11.24H196.833V10.24V9.24H187.537V10.24ZM196.833 10.24L195.926 10.6626L200.574 20.6306L201.481 20.208L202.387 19.7854L197.739 9.81739L196.833 10.24ZM201.481 20.208L202.385 20.6348L207.089 10.6668L206.185 10.24L205.28 9.81322L200.576 19.7812L201.481 20.208ZM206.185 10.24V11.24H215.425V10.24V9.24H206.185V10.24ZM215.425 10.24L214.533 9.78803L208.149 22.388L209.041 22.84L209.933 23.292L216.317 10.692L215.425 10.24ZM209.041 22.84L208.158 23.3096L215.158 36.4696L216.041 36L216.923 35.5304L209.923 22.3704L209.041 22.84ZM216.041 36V35H206.689V36V37H216.041V36ZM206.689 36L207.587 35.5604L202.379 24.9204L201.481 25.36L200.582 25.7996L205.79 36.4396L206.689 36ZM201.481 25.36L200.582 24.9204L195.374 35.5604L196.273 36L197.171 36.4396L202.379 25.7996L201.481 25.36ZM196.273 36V35H186.921V36V37H196.273V36ZM186.921 36L187.802 36.4725L194.858 23.3125L193.977 22.84L193.095 22.3675L186.039 35.5275L186.921 36Z" fill="#3B82F6" mask="url(#path-1-outside-1_14_3)"/>
</svg>
